<svg xmlns="http://www.w3.org/2000/svg" xmlns:xlink="http://www.w3.org/1999/xlink" id="Layer_1" x="0px" y="0px" viewBox="0 0 1135.3 375.2" style="enable-background:new 0 0 1135.3 375.2;" xml:space="preserve">
<style type="text/css">
	.st0{fill:#FFFFFF;}
</style>
<path id="fy_2_" class="st0" d="M889.3,92.9V73.4c0-9.6,2.9-17.7,6.7-22.5s8.6-8,14.4-9.6c5.8-1.6,12.2-1.8,19.4-0.7  c7.1,1.1,14,2.9,20.7,5.4l5.2-36.5c-14.5-4.4-28.7-7-42.5-7.8c-13.8-0.7-28.1,1.2-38.9,5.7c-10.8,4.6-19.5,12.1-25.9,22.7  s-9.6,25-9.6,43.2L839,93h-34v41h33l-0.3,147H890V134.4l51.5-0.1c7.9,0,13.8,0.1,16.1,3.5c2.3,3.5,3.5,9.1,3.5,17v37.5  c0,13.5,1.4,25.9,4.2,36.9c2.8,11.1,7.3,20.5,13.3,28.3s13.9,13.7,23.5,17.7c9.6,4.1,23.2,6,36.7,5.7c11.1,0,20.9-2.5,29.4-7.4  s14.7-12.6,18.7-22.9v25.9c0,9.4-1.4,22.3-4.2,28.8c-2.8,6.5-6.7,11.8-11.5,15.9s-9.4,7-15.8,8.9c-6.4,1.8-16.2,2.8-23.3,2.8  c-10.6,0-21.4-1.5-32.3-4.4c-11-3-20.9-6.9-29.7-11.8l-2.2,38.8c12.1,6.4,24.4,11.3,36.9,14.6c12.6,3.3,25,5,37.3,5  c12.1,0,25.6-1.8,36.5-5.5c11-3.7,20.6-9.4,29-17s15-17.4,19.8-29.2c4.8-11.8,7.8-29.8,7.8-46.7V92.9L1084,93l-0.2,74.9  c0,5.9-0.2,17.2-0.6,25.1s-1.7,15.3-3.9,22.2c-2.2,6.9-6.7,13.7-11.3,18.5c-4.7,4.8-11.5,7.2-20.3,7.2c-6.4,0-11.8-1.2-16.1-3.5  c-4.3-2.3-5.8-3.6-8.5-7.8c-2.7-4.2-4.7-9.2-5.9-15s-1.8-12-1.8-18.7v-56.5c0-11.6-2-20.7-5.9-27.3c-3.9-6.6-9.2-11.5-15.9-14.4  s-14-4.9-22.6-4.8"></path>
<path id="e" class="st0" d="M796.4,265.8c-10.5,5.8-21,9.6-31.5,11.5s-21.5,3.1-33,3.6c-15.8,0.5-30.1-1.1-43.1-4.7  s-24.1-9.4-33.4-17.4c-9.3-7.9-16.4-18-21.6-30.2c-5.1-12.2-7.7-26.6-7.7-43.2c0-15.4,2.6-28.9,7.7-40.6c5.1-11.7,11.4-20,19.9-27.8  s18.2-13.7,29.3-17.7c11-4,22.5-6.2,34.5-6.4c10.2-0.2,20.4,0.8,30.4,3c10,2.3,19,5.9,27,10.8s14.4,11.2,19.3,18.9  c4.9,7.7,7.8,15.2,7.8,25.5c-0.8,9.8-3.4,18.1-7.9,24.9c-4.5,6.8-10.3,12.4-17.3,16.8c-7,4.4-14.9,7.6-23.6,9.6c-8.8,2-17.8,3-27,3  c-18.3,0-35-3.5-50.3-10.6c0.2,7.8,1.9,14.7,5.1,20.6c3.1,5.9,7.3,10.8,12.6,14.7s11.4,6.7,18.6,8.5c7.1,1.8,14.8,2.5,23.1,2.3  c10.5-0.2,21.2-1.8,32.1-4.5c10.9-2.8,19.9-5.9,27.2-9.4L796.4,265.8z M679,163.8c4.2,2,10.2,3.9,17.8,5.7s15.3,2.6,23.1,2.6  c9.2,0,17.1-1.7,23.4-5.1c6.4-3.4,9.7-9.2,9.7-14.7c0-3.8-1.2-6.9-3.6-9.3c-2.4-2.4-5.4-4.2-9-5.5s-7.4-2.1-11.3-2.5  c-3.9-0.4-7.3-0.6-10.3-0.6c-8.3,0-16.3,2.5-24,7.4C687.1,146.9,681.7,152.5,679,163.8z"></path>
<path id="t" class="st0" d="M555.9,92.9h58.9v41.5h-58.9v71.1c0,9.5,1.7,17.8,5.3,23c3.5,5.1,8.2,8.6,14.1,10.5  c5.9,1.9,12.4,2.4,19.7,1.5s14.6-2.7,22.2-5.4l4.9,38.8c-15.5,4.3-30.4,6.6-44.7,7.1s-26.8-1.6-37.5-6.4  c-10.8-4.8-19.3-12.6-25.7-23.7c-6.4-11-9.6-25.8-9.6-44.3v-72.2h-34.2V92.9h38.2l5.3-53h42V92.9z"></path>
<path id="a" class="st0" d="M450.8,219.3c0,3.8,0.1,6,0.2,9s0.7,5.5,1.7,7.4s2.7,3.3,5.1,4.2s5.8,1.2,10.3,0.9v36.4  c-5.7,1.5-12.1,2.6-19.1,3.4s-13.5,0.3-19.7-1.3c-6.1-1.6-11.2-5-15.2-10s-6-13.6-6-23.4c-5,11.4-12.8,20.1-23.4,26.1  c-10.6,6.1-21.9,9.1-33.9,9.1c-14-0.3-26.1-3-36.3-8.3c-10.2-5.3-18.7-12.4-25.5-21.2c-6.7-8.8-11.7-19.1-15-30.8  c-3.2-11.7-4.9-24-4.9-36.9c0.5-15.4,3.4-27.3,8.6-39s12.4-21.5,21.5-29.3s20-13.6,32.6-17.4s26.7-5.5,42.1-5.3  c13.5,0.3,26.7,1.8,39.5,4.7c12.9,2.9,25.3,6.9,37.3,11.9L450.8,219.3L450.8,219.3z M399.3,139.6c-5-2-9.9-3.3-15.2-4.1  c-5.2-0.8-10.1-1.1-14.6-1.1c-14.2,0-25.7,4.1-34.3,12.3c-8.6,8.2-13.2,19.6-13.7,37c0,3.9,0.1,10.3,1.7,16.4s4.1,11.4,7.5,15.9  s7.6,8.1,12.7,10.6s11,3.8,17.8,3.8c12.5,0,21.7-4.6,27.7-13.8s10.4-20.4,10.4-30.9V139.6z"></path>
<path id="G" class="st0" d="M0.9,146.2c0-21.7,3.7-40.9,11.2-57.7c7.5-16.7,17.4-30.8,29.8-42.3s26.6-20.2,42.7-26  c16.1-5.9,32.8-8.8,50-8.8c13,0,25.8,1.6,38.4,4.9c12.6,3.2,24.3,8.4,35,15.4s20.1,15.9,28.1,26.8c7.2,9.8,12.6,21.2,16.4,34.4  c-1.2,0-54.3,0-56.4,0C190,82.6,182.3,75.1,173,70.3c-10.6-5.5-23.4-8.2-38.4-8.2c-12.2,0-23.1,2.2-32.6,6.6s-17.5,10.4-24.2,18  c-6.6,7.6-11.6,16.5-15,26.8c-3.4,10.2-5.1,21.2-5.1,33c0,12.5,1.8,23.8,5.4,34.1c3.6,10.2,8.7,19,15.4,26.4  c6.6,7.4,14.7,13.1,24.2,17.2c9.5,4.1,20.1,6.2,31.8,6.2c9,0,17.3-0.8,25.1-2.4c7.7-1.6,14.7-4.4,21-8.2c6.2-3.9,11.7-9,16.3-15.5  s8.3-14.6,11-24.3h-71.5v-45.6h122.9c0.7,12.7,0.6,23.6-0.3,35.7c-0.9,12.1-3.4,24.2-7.7,36.1c-5,13.2-11.6,24.6-19.7,34.1  c-8.1,9.5-17.3,17.3-27.5,23.4s-21.3,10.6-33.1,13.5c-11.9,2.9-24,4.3-36.5,4.3c-17.2,0-33.9-2.9-50-8.8s-30.3-14.5-42.7-26  S19.5,221.1,12,204.4C4.7,187.1,0.9,167.9,0.9,146.2z"></path>
</svg>