<svg width="110" height="35" viewBox="0 0 110 35" fill="none" xmlns="http://www.w3.org/2000/svg">
<path d="M16.1412 0.454641C17.0073 1.27828 16.9569 2.32872 17.0113 3.45475C17.1572 6.41243 18.0034 8.28915 20.2024 10.2853C20.5088 10.5558 20.8165 10.8224 21.1268 11.0877C23.5712 13.1872 25.2145 15.5122 25.8976 18.6834C25.9215 18.7869 25.944 18.8904 25.9679 18.9965C26.5501 22.2632 25.6695 25.6161 23.9081 28.3655C23.6163 28.7793 23.3073 29.1719 22.9797 29.5592C22.9054 29.6507 22.8311 29.7422 22.7542 29.8377C22.5712 30.0605 22.3789 30.2741 22.1839 30.4876C22.0964 30.4876 22.0088 30.4876 21.9186 30.4876C21.9186 30.5751 21.9186 30.6627 21.9186 30.7529C19.1161 33.3352 15.5232 34.2132 11.7975 34.0885C9.04545 33.936 6.31589 32.5699 4.27867 30.7529C4.11554 30.6083 4.11554 30.6083 3.94975 30.4611C1.60615 28.2594 0.108745 24.9874 0.00264022 21.7724C-0.104791 15.4446 3.07836 10.3847 7.35307 5.93495C10.1741 3.02238 10.1741 3.02238 11.5734 1.97194C11.7113 1.86584 11.8493 1.75973 11.9912 1.65097C14.5231 -0.281461 14.5231 -0.281461 16.1412 0.454641Z" fill="#5C32FE"/>
<path d="M24.8365 16.1631C24.924 16.1631 25.0115 16.1631 25.1017 16.1631C25.2914 16.6445 25.4665 17.1313 25.6323 17.622C25.6734 17.7427 25.7145 17.8621 25.7556 17.9868C26.6031 20.9749 26.058 24.5401 24.5911 27.2378C24.1216 28.0667 23.5937 28.8307 22.9796 29.5588C22.9054 29.6503 22.8311 29.7432 22.7542 29.8373C22.5711 30.0602 22.3788 30.275 22.1838 30.4872C22.0823 30.5978 22.0913 30.5934 21.9186 30.7525C18.9583 33.4794 15.3334 34.1333 11.4407 34.0683C11.1091 34.0683 10.8654 34.0005 10.7775 34.002C9.21647 33.8282 7.81854 32.1305 6.82514 31.0138C5.74684 29.6609 5.45373 28.2153 5.60493 26.5083C5.97762 24.9539 7.02276 23.7721 8.35703 22.9352C9.90882 22.101 11.572 21.8662 13.3068 21.8052C13.5681 21.7946 13.8294 21.784 14.0907 21.7734C14.4965 21.7575 14.9037 21.7415 15.3109 21.727C18.1545 21.6209 21.2289 21.4988 23.4969 19.5253C24.3842 18.5677 24.806 17.4562 24.8365 16.1631Z" fill="#854BFE"/>
<path d="M91.5503 14.3064C92.6883 14.3064 93.8262 14.3064 94.9987 14.3064C95.9908 16.9961 96.963 19.6925 97.9166 22.3968C98.2336 22.0799 98.3065 21.8345 98.4538 21.4114C98.5055 21.2615 98.5585 21.1103 98.6129 20.9551C98.6978 20.7111 98.6978 20.7111 98.784 20.4618C98.8424 20.2933 98.9007 20.1249 98.9591 19.9564C99.1143 19.5121 99.2681 19.0678 99.422 18.6248C99.6687 17.9139 99.9154 17.203 100.163 16.4934C100.25 16.2441 100.336 15.9961 100.422 15.748C100.474 15.5969 100.527 15.447 100.58 15.2918C100.626 15.1592 100.673 15.0252 100.719 14.8886C100.834 14.5716 100.834 14.5716 100.967 14.3064C102.105 14.3064 103.243 14.3064 104.416 14.3064C103.934 15.6937 103.431 17.0651 102.88 18.4272C102.677 18.9272 102.475 19.4286 102.275 19.9299C102.232 20.0334 102.19 20.1381 102.148 20.2456C101.719 21.3106 101.297 22.3783 100.877 23.446C100.248 25.0442 99.6169 26.6424 98.9816 28.2379C98.914 28.409 98.8463 28.5801 98.7787 28.7499C98.6859 28.9846 98.5917 29.2181 98.4989 29.4515C98.4471 29.5815 98.3954 29.7114 98.341 29.8467C98.1726 30.2446 97.9776 30.6306 97.784 31.0179C96.7335 31.0179 95.6831 31.0179 94.6008 31.0179C95.0451 29.6849 95.0451 29.6849 95.3038 29.0682C95.3568 28.9382 95.4099 28.8082 95.4642 28.6743C95.5743 28.405 95.6857 28.1371 95.7998 27.8692C95.8515 27.7405 95.9046 27.6106 95.9576 27.4766C96.0067 27.3612 96.0545 27.2445 96.1035 27.1251C96.2919 26.3771 95.9802 25.7113 95.7003 25.0216C95.6446 24.881 95.6446 24.881 95.5876 24.7378C95.5067 24.5335 95.4245 24.3306 95.3436 24.1264C95.2122 23.8014 95.0823 23.4751 94.9523 23.1489C94.7626 22.6727 94.573 22.1966 94.3833 21.7204C93.8727 20.4432 93.3647 19.166 92.8567 17.8874C92.6869 17.459 92.5158 17.0306 92.3461 16.6035C92.2413 16.3396 92.1365 16.077 92.0317 15.813C91.9827 15.691 91.9336 15.569 91.8832 15.443C91.8394 15.3316 91.7957 15.2215 91.7506 15.1061C91.7108 15.0093 91.6723 14.9111 91.6325 14.8117C91.5503 14.5716 91.5503 14.5716 91.5503 14.3064Z" fill="#C7C7C7"/>
<path d="M33.0599 9.39899C42.5294 9.39899 42.5296 9.39921 44.8636 11.5211C45.0268 11.659 45.0276 11.6594 45.1947 11.8013C46.6733 13.1409 47.5417 15.0784 47.6849 17.0611C47.7738 19.4352 47.1781 21.7227 45.5931 23.5318C45.3969 23.7307 45.198 23.9284 44.9965 24.1207C44.8705 24.248 44.8706 24.2482 44.7406 24.3795C41.7153 27.2668 36.6688 26.3755 33.0599 26.3755V9.39899ZM36.3763 23.3257C38.7289 23.3258 40.6665 23.6662 42.4701 22.1851C43.5656 21.144 44.1453 19.9534 44.2289 18.4361C44.258 16.7214 43.9836 15.3182 42.7689 14.0464C41.1893 12.5822 41.1891 12.5826 36.3763 12.5826V23.3257Z" fill="#C7C7C7"/>
<path d="M87.0413 9.39899C88.0917 9.39899 89.1421 9.39899 90.2244 9.39899C90.2244 15.0013 90.2244 20.6037 90.2244 26.3758C89.174 26.3758 88.1235 26.3758 87.0413 26.3758C87.0413 20.7734 87.0413 15.1711 87.0413 9.39899Z" fill="#C7C7C7"/>
<path d="M56.8012 14.0411C56.9338 14.1737 56.9338 14.1737 56.9484 14.4681C56.9484 14.5955 56.9471 14.7228 56.9471 14.8541C56.9458 14.9907 56.9458 15.1286 56.9458 15.2692C56.9444 15.4867 56.9444 15.4867 56.9418 15.7069C56.9418 15.8515 56.9405 15.9974 56.9405 16.1459C56.9391 16.5053 56.9365 16.8648 56.9338 17.2242C56.8251 17.2282 56.7163 17.2308 56.6036 17.2348C55.4218 17.2945 54.4563 17.4603 53.4934 18.1778C52.7997 19.1235 52.7612 20.1739 52.7546 21.3119C52.752 21.4565 52.7493 21.6024 52.7467 21.7522C52.74 22.2125 52.736 22.674 52.7307 23.1342C52.7268 23.4486 52.7215 23.7629 52.7175 24.0772C52.7055 24.8425 52.6976 25.6091 52.6896 26.3757C51.6392 26.3757 50.5887 26.3757 49.5065 26.3757C49.5065 22.3928 49.5065 18.4099 49.5065 14.3063C50.4694 14.3063 51.4323 14.3063 52.4244 14.3063C52.4907 15.3568 52.4907 15.3568 52.557 16.4284C52.7321 16.1658 52.9071 15.9032 53.0875 15.6326C54.0451 14.5742 55.3714 13.9774 56.8012 14.0411Z" fill="#C7C7C7"/>
<path d="M79.5991 14.003C81.1747 14.0388 82.526 14.6353 83.6255 15.7745C85.026 17.4548 85.3176 19.3685 85.1519 21.4786C84.9251 23.2492 84.021 24.7324 82.6138 25.8252C81.4135 26.6091 79.9767 26.9499 78.5522 26.7735C77.4529 26.5361 76.5787 26.0983 75.7671 25.3145C75.7009 25.1833 75.7006 25.1828 75.6343 25.0489C75.5905 27.0184 75.5475 28.9884 75.5024 31.0176H72.3188V14.3067H75.5024C75.5462 14.7878 75.5892 15.269 75.6343 15.7647C75.7191 15.648 75.8046 15.5302 75.8921 15.4082C76.7303 14.4018 78.0418 13.9895 79.3149 14C79.4555 14.0014 79.4559 14.0016 79.5991 14.003ZM80.8071 17.6221C79.7077 16.7164 78.3785 16.6054 77.0854 17.1836C76.3336 17.5842 75.8417 18.1888 75.5698 19.003C75.3245 20.2537 75.3258 21.6981 76.0327 22.795C76.6561 23.5509 77.4717 23.8955 78.4292 24.0254C79.3709 24.0705 80.1069 23.7588 80.8403 23.1924C81.6506 22.4325 81.8918 21.4765 81.9263 20.3916C81.8825 19.2763 81.6201 18.4166 80.8071 17.6221Z" fill="#C7C7C7"/>
<path d="M59.7345 15.5993C62.2822 13.4813 66.0051 13.4336 68.6047 15.4997C69.8248 16.6124 70.503 18.1909 70.633 19.8248C70.6781 21.801 70.2218 23.5308 68.8703 25.0163C67.4326 26.3717 65.6405 26.8695 63.7121 26.8151C61.9893 26.7182 60.457 25.9022 59.2873 24.6608C58.0155 23.1595 57.7558 21.4147 57.8381 19.4997C57.9615 18.0197 58.6696 16.6178 59.7345 15.5993ZM65.9172 17.2741C64.9238 16.7225 63.8134 16.5689 62.7697 17.0914C61.9051 17.671 61.3884 18.3185 61.1789 19.3463C61.0715 20.7455 61.0959 21.9421 62.007 23.0827C62.6317 23.7392 63.2609 23.8884 64.1535 23.9215C65.0977 23.8897 65.831 23.6911 66.5246 23.0348C66.6002 22.9088 66.6749 22.7851 66.7492 22.6618C67.1616 22.0133 67.3097 21.4388 67.3283 20.6657V20.3825C67.3296 20.031 67.31 19.6991 67.2795 19.3463C67.0474 18.4816 66.6533 17.8006 65.9172 17.2741Z" fill="#C7C7C7"/>
<path d="M87.0413 9.39899C88.0917 9.39899 89.1421 9.39899 90.2244 9.39899C90.2244 15.0013 90.2244 20.6037 90.2244 26.3758C89.174 26.3758 88.1235 26.3758 87.0413 26.3758C87.0413 20.7734 87.0413 15.1711 87.0413 9.39899ZM87.3065 9.66425C87.3065 15.1353 87.3065 20.6063 87.3065 26.2431C88.2257 26.2431 89.1448 26.2431 90.0918 26.2431C90.0918 20.7721 90.0918 15.3011 90.0918 9.66425C89.1726 9.66425 88.2535 9.66425 87.3065 9.66425Z" fill="#C7C7C7"/>
<path d="M94.8662 30.2219C94.91 30.3532 94.9538 30.4845 94.9988 30.6198C95.918 30.6636 96.8371 30.7074 97.7841 30.7525C97.7841 30.84 97.7841 30.9275 97.7841 31.0177C96.7337 31.0177 95.6832 31.0177 94.601 31.0177C94.6885 30.7551 94.776 30.4925 94.8662 30.2219Z" fill="#C7C7C7"/>
<rect x="106.37" y="23.7409" width="3.05052" height="3.05051" fill="#5C32FE"/>
</svg>
